<svg xmlns="http://www.w3.org/2000/svg" width="225" height="59.51428935582902" viewBox="0 0 225 59.51428935582902" class="editor-view__logo-preview" data-v-8d8ae3dd="" data-v-b9d2a614=""><svg id="mark" viewBox="0 0 100 100" width="54" height="54" x="0" y="2.7571446779145106" data-v-8d8ae3dd="" style="fill: rgb(255, 255, 255);"><rect x="0" y="0" width="100%" height="100%" fill="none" data-v-8d8ae3dd=""></rect><g data-v-8d8ae3dd=""><path xmlns="http://www.w3.org/2000/svg" d="M80.644,87.982l16.592-41.483c0.054-0.128,0.088-0.26,0.108-0.394c0.006-0.039,0.007-0.077,0.011-0.116  c0.007-0.087,0.008-0.174,0.002-0.26c-0.003-0.046-0.007-0.091-0.014-0.137c-0.014-0.089-0.036-0.176-0.063-0.262  c-0.012-0.034-0.019-0.069-0.031-0.103c-0.047-0.118-0.106-0.229-0.178-0.335c-0.004-0.006-0.006-0.012-0.01-0.018L67.999,3.358  c-0.01-0.013-0.003-0.026-0.013-0.04L68,3.315V4c0,0-0.033,0-0.037,0c-0.403-1-1.094-1.124-1.752-0.976  c0,0.004-0.004-0.012-0.007-0.012C66.201,3.016,66.194,3,66.194,3H66.19h-0.003h-0.003h-0.004h-0.003c0,0-0.004,0-0.007,0  s-0.003-0.151-0.007-0.151L20.495,15.227c-0.025,0.007-0.046-0.019-0.071-0.011c-0.087,0.028-0.172,0.041-0.253,0.083  c-0.054,0.027-0.102,0.053-0.152,0.085c-0.051,0.033-0.101,0.061-0.147,0.099c-0.044,0.036-0.084,0.073-0.124,0.113  c-0.048,0.048-0.093,0.098-0.136,0.152c-0.03,0.039-0.059,0.076-0.085,0.117c-0.046,0.07-0.084,0.145-0.12,0.223  c-0.011,0.023-0.027,0.042-0.036,0.066L2.911,57.664C2.891,57.715,3,57.768,3,57.82v0.002c0,0.186,0,0.375,0,0.562  c0,0.004,0,0.004,0,0.008c0,0,0,0,0,0.002c0,0,0,0,0,0.004v0.004v0.002c0,0.074-0.002,0.15,0.012,0.223  C3.015,58.631,3,58.631,3,58.633c0,0.004,0,0.004,0,0.008c0,0,0,0,0,0.002c0,0,0,0,0,0.004v0.004c0,0,0,0,0,0.002v0.004  c0,0.191-0.046,0.377,0.06,0.545c0-0.002-0.03,0.004-0.03,0.004c0,0.004-0.03,0.004-0.03,0.004c0,0.002,0,0.002,0,0.002  l-0.045,0.004c0.03,0.047,0.036,0.09,0.068,0.133l29.049,37.359c0.002,0.004,0,0.006,0.002,0.01c0.002,0.002,0,0.004,0.002,0.008  c0.006,0.008,0.014,0.014,0.021,0.021c0.024,0.029,0.052,0.051,0.078,0.078c0.027,0.029,0.053,0.057,0.082,0.082  c0.03,0.027,0.055,0.062,0.086,0.088c0.026,0.02,0.057,0.033,0.084,0.053c0.04,0.027,0.081,0.053,0.123,0.076  c0.005,0.004,0.01,0.008,0.016,0.01c0.087,0.051,0.176,0.09,0.269,0.123c0.042,0.014,0.082,0.031,0.125,0.043  c0.021,0.006,0.041,0.018,0.062,0.021c0.123,0.027,0.249,0.043,0.375,0.043c0.099,0,0.202-0.012,0.304-0.027l45.669-8.303  c0.057-0.01,0.108-0.021,0.163-0.037C79.547,88.992,79.562,89,79.575,89c0.004,0,0.004,0,0.004,0c0.021,0,0.039-0.027,0.06-0.035  c0.041-0.014,0.08-0.034,0.12-0.052c0.021-0.01,0.044-0.019,0.064-0.03c0.017-0.01,0.026-0.015,0.033-0.017  c0.014-0.008,0.023-0.021,0.037-0.028c0.14-0.078,0.269-0.174,0.38-0.285c0.014-0.016,0.024-0.034,0.038-0.048  c0.109-0.119,0.201-0.252,0.271-0.398c0.006-0.01,0.016-0.018,0.021-0.029c0.004-0.008,0.008-0.017,0.011-0.026  c0.002-0.004,0.003-0.006,0.005-0.01C80.627,88.021,80.635,88.002,80.644,87.982z M77.611,84.461L48.805,66.453l32.407-25.202  L77.611,84.461z M46.817,63.709L35.863,23.542l43.818,14.608L46.817,63.709z M84.668,40.542l8.926,5.952l-11.902,29.75  L84.668,40.542z M89.128,39.446L84.53,36.38l-6.129-12.257L89.128,39.446z M79.876,34.645L37.807,20.622L65.854,6.599L79.876,34.645  z M33.268,19.107l-6.485-2.162l23.781-6.487L33.268,19.107z M21.92,18.895l8.67,2.891L10.357,47.798L21.92,18.895z M32.652,24.649  l10.845,39.757L7.351,57.178L32.652,24.649z M43.472,67.857L32.969,92.363L8.462,60.855L43.472,67.857z M46.631,69.09l27.826,17.393  l-38.263,6.959L46.631,69.09z"></path></g></svg><svg id="name" viewBox="0 0 155.84976196289062 32.75199890136719" width="155" height="32.57342049018139" x="70" y="4" data-v-8d8ae3dd="" style="fill: rgb(255, 255, 255);"><rect x="0" y="0" width="100%" height="100%" fill="none" data-v-8d8ae3dd=""></rect><g data-v-8d8ae3dd=""><path xmlns="http://www.w3.org/2000/svg" d="M5.89 32.20L0 32.20L0 0L5.89 0L21.02 22.68L21.02 0L26.91 0L26.91 32.20L21.02 32.20L5.89 9.57L5.89 32.20ZM44.11 32.75L44.11 32.75Q40.66 32.75 38.00 31.28Q35.33 29.81 33.81 27.14Q32.29 24.47 32.29 20.98L32.29 20.98Q32.29 17.43 33.79 14.67Q35.28 11.91 37.93 10.37Q40.57 8.83 44.16 8.83L44.16 8.83Q47.52 8.83 50.09 10.30Q52.67 11.78 54.12 14.33Q55.57 16.88 55.57 20.01L55.57 20.01Q55.57 20.52 55.54 21.07Q55.52 21.62 55.48 22.22L55.48 22.22L38.13 22.22Q38.32 24.89 40.00 26.40Q41.68 27.92 44.07 27.92L44.07 27.92Q45.86 27.92 47.08 27.12Q48.30 26.31 48.90 25.02L48.90 25.02L54.88 25.02Q54.23 27.19 52.74 28.96Q51.24 30.73 49.06 31.74Q46.87 32.75 44.11 32.75ZM44.16 13.62L44.16 13.62Q42.00 13.62 40.34 14.84Q38.69 16.05 38.23 18.54L38.23 18.54L49.59 18.54Q49.45 16.28 47.93 14.95Q46.41 13.62 44.16 13.62ZM63.11 32.20L56.81 32.20L65.09 20.79L56.81 9.38L63.11 9.38L68.91 17.48L74.66 9.38L81.01 9.38L72.68 20.79L81.01 32.20L74.66 32.20L68.91 24.10L63.11 32.20ZM94.21 32.75L94.21 32.75Q91.17 32.75 88.87 31.76Q86.57 30.77 85.19 29.03Q83.81 27.28 83.54 24.98L83.54 24.98L89.47 24.98Q89.75 26.31 90.97 27.26Q92.18 28.20 94.12 28.20L94.12 28.20Q96.05 28.20 96.94 27.42Q97.84 26.63 97.84 25.62L97.84 25.62Q97.84 24.15 96.55 23.62Q95.27 23.09 92.97 22.59L92.97 22.59Q91.49 22.26 89.98 21.80Q88.46 21.34 87.19 20.63Q85.93 19.92 85.15 18.79Q84.36 17.66 84.36 16.01L84.36 16.01Q84.36 12.97 86.78 10.90Q89.19 8.83 93.56 8.83L93.56 8.83Q97.61 8.83 100.03 10.72Q102.44 12.60 102.90 15.92L102.90 15.92L97.34 15.92Q96.83 13.39 93.52 13.39L93.52 13.39Q91.86 13.39 90.97 14.03Q90.07 14.67 90.07 15.64L90.07 15.64Q90.07 16.65 91.40 17.25Q92.74 17.85 94.94 18.35L94.94 18.35Q97.34 18.91 99.34 19.57Q101.34 20.24 102.53 21.55Q103.73 22.86 103.73 25.30L103.73 25.30Q103.78 27.42 102.63 29.12Q101.48 30.82 99.31 31.79Q97.15 32.75 94.21 32.75ZM117.48 32.75L117.48 32.75Q113.21 32.75 110.88 30.08Q108.56 27.42 108.56 22.26L108.56 22.26L108.56 9.38L114.40 9.38L114.40 21.71Q114.40 24.66 115.60 26.22Q116.79 27.78 119.37 27.78L119.37 27.78Q121.81 27.78 123.39 26.04Q124.98 24.29 124.98 21.16L124.98 21.16L124.98 9.38L130.87 9.38L130.87 32.20L125.67 32.20L125.21 28.34Q124.15 30.36 122.15 31.56Q120.15 32.75 117.48 32.75ZM146.33 32.75L146.33 32.75Q143.29 32.75 140.99 31.76Q138.69 30.77 137.31 29.03Q135.93 27.28 135.65 24.98L135.65 24.98L141.59 24.98Q141.86 26.31 143.08 27.26Q144.30 28.20 146.23 28.20L146.23 28.20Q148.17 28.20 149.06 27.42Q149.96 26.63 149.96 25.62L149.96 25.62Q149.96 24.15 148.67 23.62Q147.38 23.09 145.08 22.59L145.08 22.59Q143.61 22.26 142.09 21.80Q140.58 21.34 139.31 20.63Q138.05 19.92 137.26 18.79Q136.48 17.66 136.48 16.01L136.48 16.01Q136.48 12.97 138.90 10.90Q141.31 8.83 145.68 8.83L145.68 8.83Q149.73 8.83 152.14 10.72Q154.56 12.60 155.02 15.92L155.02 15.92L149.45 15.92Q148.95 13.39 145.64 13.39L145.64 13.39Q143.98 13.39 143.08 14.03Q142.19 14.67 142.19 15.64L142.19 15.64Q142.19 16.65 143.52 17.25Q144.85 17.85 147.06 18.35L147.06 18.35Q149.45 18.91 151.45 19.57Q153.46 20.24 154.65 21.55Q155.85 22.86 155.85 25.30L155.85 25.30Q155.89 27.42 154.74 29.12Q153.59 30.82 151.43 31.79Q149.27 32.75 146.33 32.75Z"></path></g></svg><svg id="slogan" viewBox="0 0 153.80076599121094 19.040000915527344" width="153" height="18.940868865647627" x="70" y="40.57342049018139" data-v-8d8ae3dd="" style="fill: rgb(255, 255, 255);"><rect x="0" y="0" width="100%" height="100%" fill="none" data-v-8d8ae3dd=""></rect><g data-v-8d8ae3dd=""><path xmlns="http://www.w3.org/2000/svg" d="M4.78 14.40L0 14.40L0 0.40L4.78 0.40Q7.24 0.40 8.83 1.27Q10.42 2.14 11.19 3.71Q11.96 5.28 11.96 7.40L11.96 7.40Q11.96 9.52 11.19 11.09Q10.42 12.66 8.83 13.53Q7.24 14.40 4.78 14.40L4.78 14.40ZM2.56 2.58L2.56 12.20L4.66 12.20Q6.42 12.20 7.44 11.63Q8.46 11.06 8.90 9.99Q9.34 8.92 9.34 7.40L9.34 7.40Q9.34 5.90 8.90 4.82Q8.46 3.74 7.44 3.16Q6.42 2.58 4.66 2.58L4.66 2.58L2.56 2.58ZM15.54 2.94L15.54 2.94Q14.84 2.94 14.39 2.52Q13.94 2.10 13.94 1.46L13.94 1.46Q13.94 0.82 14.39 0.41Q14.84 0 15.54 0L15.54 0Q16.24 0 16.69 0.41Q17.14 0.82 17.14 1.46L17.14 1.46Q17.14 2.10 16.69 2.52Q16.24 2.94 15.54 2.94ZM16.82 14.40L14.26 14.40L14.26 4.48L16.82 4.48L16.82 14.40ZM23.70 11.44L23.70 11.44Q22.98 11.44 22.36 11.28L22.36 11.28L21.62 12.02Q21.96 12.20 22.54 12.32Q23.12 12.44 24.42 12.56L24.42 12.56Q26.40 12.74 27.30 13.50Q28.20 14.26 28.20 15.60L28.20 15.60Q28.20 16.48 27.72 17.27Q27.24 18.06 26.24 18.55Q25.24 19.04 23.68 19.04L23.68 19.04Q21.56 19.04 20.26 18.25Q18.96 17.46 18.96 15.88L18.96 15.88Q18.96 14.54 20.26 13.56L20.26 13.56Q19.86 13.38 19.57 13.18Q19.28 12.98 19.06 12.76L19.06 12.76L19.06 12.30L20.80 10.46Q19.64 9.44 19.64 7.84L19.64 7.84Q19.64 6.84 20.13 6.02Q20.62 5.20 21.52 4.72Q22.42 4.24 23.70 4.24L23.70 4.24Q24.54 4.24 25.26 4.48L25.26 4.48L29.02 4.48L29.02 6.04L27.32 6.16Q27.72 6.92 27.72 7.84L27.72 7.84Q27.72 8.84 27.24 9.66Q26.76 10.48 25.85 10.96Q24.94 11.44 23.70 11.44ZM23.70 9.48L23.70 9.48Q24.48 9.48 24.99 9.06Q25.50 8.64 25.50 7.86L25.50 7.86Q25.50 7.08 24.99 6.66Q24.48 6.24 23.70 6.24L23.70 6.24Q22.88 6.24 22.38 6.66Q21.88 7.08 21.88 7.86L21.88 7.86Q21.88 8.64 22.38 9.06Q22.88 9.48 23.70 9.48ZM21.30 15.62L21.30 15.62Q21.30 16.36 21.99 16.73Q22.68 17.10 23.68 17.10L23.68 17.10Q24.64 17.10 25.24 16.71Q25.84 16.32 25.84 15.66L25.84 15.66Q25.84 15.12 25.45 14.76Q25.06 14.40 23.90 14.32L23.90 14.32Q23.08 14.26 22.38 14.14L22.38 14.14Q21.80 14.46 21.55 14.84Q21.30 15.22 21.30 15.62ZM32.26 2.94L32.26 2.94Q31.56 2.94 31.11 2.52Q30.66 2.10 30.66 1.46L30.66 1.46Q30.66 0.82 31.11 0.41Q31.56 0 32.26 0L32.26 0Q32.96 0 33.41 0.41Q33.86 0.82 33.86 1.46L33.86 1.46Q33.86 2.10 33.41 2.52Q32.96 2.94 32.26 2.94ZM33.54 14.40L30.98 14.40L30.98 4.48L33.54 4.48L33.54 14.40ZM42.38 14.40L40.64 14.40Q39.08 14.40 38.14 13.64Q37.20 12.88 37.20 10.94L37.20 10.94L37.20 6.62L35.50 6.62L35.50 4.48L37.20 4.48L37.50 1.82L39.76 1.82L39.76 4.48L42.44 4.48L42.44 6.62L39.76 6.62L39.76 10.96Q39.76 11.68 40.07 11.95Q40.38 12.22 41.14 12.22L41.14 12.22L42.38 12.22L42.38 14.40ZM48.06 14.64L48.06 14.64Q46.78 14.64 45.96 14.23Q45.14 13.82 44.74 13.14Q44.34 12.46 44.34 11.64L44.34 11.64Q44.34 10.26 45.42 9.40Q46.50 8.54 48.66 8.54L48.66 8.54L51.18 8.54L51.18 8.30Q51.18 7.28 50.60 6.80Q50.02 6.32 49.16 6.32L49.16 6.32Q48.38 6.32 47.80 6.69Q47.22 7.06 47.08 7.78L47.08 7.78L44.58 7.78Q44.68 6.70 45.31 5.90Q45.94 5.10 46.94 4.67Q47.94 4.24 49.18 4.24L49.18 4.24Q51.30 4.24 52.52 5.30Q53.74 6.36 53.74 8.30L53.74 8.30L53.74 14.40L51.56 14.40L51.32 12.80Q50.88 13.60 50.09 14.12Q49.30 14.64 48.06 14.64ZM48.64 12.64L48.64 12.64Q49.74 12.64 50.35 11.92Q50.96 11.20 51.12 10.14L51.12 10.14L48.94 10.14Q47.92 10.14 47.48 10.51Q47.04 10.88 47.04 11.42L47.04 11.42Q47.04 12 47.48 12.32Q47.92 12.64 48.64 12.64ZM58.74 14.40L56.18 14.40L56.18 0L58.74 0L58.74 14.40ZM70.96 14.64L70.96 14.64Q69.42 14.64 68.24 14.11Q67.06 13.58 66.38 12.59Q65.70 11.60 65.68 10.18L65.68 10.18L68.38 10.18Q68.42 11.16 69.09 11.83Q69.76 12.50 70.94 12.50L70.94 12.50Q71.96 12.50 72.56 12.01Q73.16 11.52 73.16 10.70L73.16 10.70Q73.16 9.84 72.63 9.36Q72.10 8.88 71.22 8.58Q70.34 8.28 69.34 7.94L69.34 7.94Q67.72 7.38 66.87 6.50Q66.02 5.62 66.02 4.16L66.02 4.16Q66.00 2.92 66.61 2.03Q67.22 1.14 68.28 0.65Q69.34 0.16 70.72 0.16L70.72 0.16Q72.12 0.16 73.19 0.66Q74.26 1.16 74.87 2.06Q75.48 2.96 75.52 4.20L75.52 4.20L72.78 4.20Q72.76 3.46 72.21 2.89Q71.66 2.32 70.68 2.32L70.68 2.32Q69.84 2.30 69.27 2.73Q68.70 3.16 68.70 3.98L68.70 3.98Q68.70 4.68 69.14 5.09Q69.58 5.50 70.34 5.78Q71.10 6.06 72.08 6.38L72.08 6.38Q73.12 6.74 73.98 7.22Q74.84 7.70 75.36 8.49Q75.88 9.28 75.88 10.52L75.88 10.52Q75.88 11.62 75.32 12.56Q74.76 13.50 73.66 14.07Q72.56 14.64 70.96 14.64ZM82.82 14.64L82.82 14.64Q81.38 14.64 80.23 13.98Q79.08 13.32 78.41 12.15Q77.74 10.98 77.74 9.44L77.74 9.44Q77.74 7.90 78.42 6.73Q79.10 5.56 80.25 4.90Q81.40 4.24 82.84 4.24L82.84 4.24Q84.26 4.24 85.41 4.90Q86.56 5.56 87.23 6.73Q87.90 7.90 87.90 9.44L87.90 9.44Q87.90 10.98 87.23 12.15Q86.56 13.32 85.40 13.98Q84.24 14.64 82.82 14.64ZM82.82 12.42L82.82 12.42Q83.82 12.42 84.56 11.67Q85.30 10.92 85.30 9.44L85.30 9.44Q85.30 7.96 84.56 7.21Q83.82 6.46 82.84 6.46L82.84 6.46Q81.82 6.46 81.09 7.21Q80.36 7.96 80.36 9.44L80.36 9.44Q80.36 10.92 81.09 11.67Q81.82 12.42 82.82 12.42ZM92.74 14.40L90.18 14.40L90.18 0L92.74 0L92.74 14.40ZM99.08 14.64L99.08 14.64Q97.22 14.64 96.21 13.48Q95.20 12.32 95.20 10.08L95.20 10.08L95.20 4.48L97.74 4.48L97.74 9.84Q97.74 11.12 98.26 11.80Q98.78 12.48 99.90 12.48L99.90 12.48Q100.96 12.48 101.65 11.72Q102.34 10.96 102.34 9.60L102.34 9.60L102.34 4.48L104.90 4.48L104.90 14.40L102.64 14.40L102.44 12.72Q101.98 13.60 101.11 14.12Q100.24 14.64 99.08 14.64ZM113.68 14.40L111.94 14.40Q110.38 14.40 109.44 13.64Q108.50 12.88 108.50 10.94L108.50 10.94L108.50 6.62L106.80 6.62L106.80 4.48L108.50 4.48L108.80 1.82L111.06 1.82L111.06 4.48L113.74 4.48L113.74 6.62L111.06 6.62L111.06 10.96Q111.06 11.68 111.37 11.95Q111.68 12.22 112.44 12.22L112.44 12.22L113.68 12.22L113.68 14.40ZM117.32 2.94L117.32 2.94Q116.62 2.94 116.17 2.52Q115.72 2.10 115.72 1.46L115.72 1.46Q115.72 0.82 116.17 0.41Q116.62 0 117.32 0L117.32 0Q118.02 0 118.47 0.41Q118.92 0.82 118.92 1.46L118.92 1.46Q118.92 2.10 118.47 2.52Q118.02 2.94 117.32 2.94ZM118.60 14.40L116.04 14.40L116.04 4.48L118.60 4.48L118.60 14.40ZM126.04 14.64L126.04 14.64Q124.60 14.64 123.45 13.98Q122.30 13.32 121.63 12.15Q120.96 10.98 120.96 9.44L120.96 9.44Q120.96 7.90 121.64 6.73Q122.32 5.56 123.47 4.90Q124.62 4.24 126.06 4.24L126.06 4.24Q127.48 4.24 128.63 4.90Q129.78 5.56 130.45 6.73Q131.12 7.90 131.12 9.44L131.12 9.44Q131.12 10.98 130.45 12.15Q129.78 13.32 128.62 13.98Q127.46 14.64 126.04 14.64ZM126.04 12.42L126.04 12.42Q127.04 12.42 127.78 11.67Q128.52 10.92 128.52 9.44L128.52 9.44Q128.52 7.96 127.78 7.21Q127.04 6.46 126.06 6.46L126.06 6.46Q125.04 6.46 124.31 7.21Q123.58 7.96 123.58 9.44L123.58 9.44Q123.58 10.92 124.31 11.67Q125.04 12.42 126.04 12.42ZM135.96 14.40L133.40 14.40L133.40 4.48L135.66 4.48L135.86 6.16Q136.32 5.28 137.19 4.76Q138.06 4.24 139.24 4.24L139.24 4.24Q141.08 4.24 142.10 5.40Q143.12 6.56 143.12 8.80L143.12 8.80L143.12 14.40L140.56 14.40L140.56 9.04Q140.56 7.76 140.04 7.08Q139.52 6.40 138.42 6.40L138.42 6.40Q137.34 6.40 136.65 7.16Q135.96 7.92 135.96 9.28L135.96 9.28L135.96 14.40ZM149.66 14.64L149.66 14.64Q148.34 14.64 147.34 14.21Q146.34 13.78 145.74 13.02Q145.14 12.26 145.02 11.26L145.02 11.26L147.60 11.26Q147.72 11.84 148.25 12.25Q148.78 12.66 149.62 12.66L149.62 12.66Q150.46 12.66 150.85 12.32Q151.24 11.98 151.24 11.54L151.24 11.54Q151.24 10.90 150.68 10.67Q150.12 10.44 149.12 10.22L149.12 10.22Q148.48 10.08 147.82 9.88Q147.16 9.68 146.61 9.37Q146.06 9.06 145.72 8.57Q145.38 8.08 145.38 7.36L145.38 7.36Q145.38 6.04 146.43 5.14Q147.48 4.24 149.38 4.24L149.38 4.24Q151.14 4.24 152.19 5.06Q153.24 5.88 153.44 7.32L153.44 7.32L151.02 7.32Q150.80 6.22 149.36 6.22L149.36 6.22Q148.64 6.22 148.25 6.50Q147.86 6.78 147.86 7.20L147.86 7.20Q147.86 7.64 148.44 7.90Q149.02 8.16 149.98 8.38L149.98 8.38Q151.02 8.62 151.89 8.91Q152.76 9.20 153.28 9.77Q153.80 10.34 153.80 11.40L153.80 11.40Q153.82 12.32 153.32 13.06Q152.82 13.80 151.88 14.22Q150.94 14.64 149.66 14.64Z"></path></g></svg></svg>