<svg xmlns="http://www.w3.org/2000/svg" width="219" height="54" viewBox="0 0 219 54" class="editor-view__logo-preview" data-v-8d8ae3dd="" data-v-b9d2a614=""><svg id="mark" viewBox="0 0 32 32" width="54" height="54" x="0" y="0" data-v-8d8ae3dd="" style="fill: rgb(0, 0, 0);"><rect x="0" y="0" width="100%" height="100%" fill="none" data-v-8d8ae3dd=""></rect><g data-v-8d8ae3dd=""><g xmlns="http://www.w3.org/2000/svg"><g><polygon points="9.382,8.675 23.325,8.675 23.325,22.618 32,31.293 32,0 0.707,0   "></polygon><polygon points="22.618,23.325 8.675,23.325 8.675,9.382 0,0.707 0,32 31.293,32   "></polygon></g></g></g></svg><svg id="name" viewBox="0 0 149.185546875 33.15234375" width="149" height="33.111111111111114" x="70" y="10.444444444444443" data-v-8d8ae3dd="" style="fill: rgb(0, 0, 0);"><rect x="0" y="0" width="100%" height="100%" fill="none" data-v-8d8ae3dd=""></rect><g data-v-8d8ae3dd=""><path xmlns="http://www.w3.org/2000/svg" d="M26.59 0L26.59 32.70L19.86 32.70L6.74 11.19L6.74 32.70L0 32.70L0 0L6.74 0L19.88 21.56L19.88 0L26.59 0ZM43.24 33.15L43.24 33.15Q37.89 33.15 34.53 29.87Q31.18 26.59 31.18 21.14L31.18 21.14L31.18 20.51Q31.18 16.85 32.59 13.96Q34.01 11.07 36.60 9.51Q39.19 7.95 42.52 7.95L42.52 7.95Q47.50 7.95 50.37 11.10Q53.23 14.24 53.23 20.01L53.23 20.01L53.23 22.66L37.76 22.66Q38.07 25.04 39.65 26.48Q41.24 27.92 43.66 27.92L43.66 27.92Q47.42 27.92 49.53 25.20L49.53 25.20L52.72 28.77Q51.26 30.84 48.76 32.00Q46.27 33.15 43.24 33.15ZM42.50 13.21L42.50 13.21Q40.56 13.21 39.36 14.51Q38.16 15.81 37.82 18.24L37.82 18.24L46.85 18.24L46.85 17.72Q46.81 15.57 45.69 14.39Q44.56 13.21 42.50 13.21ZM62.17 8.40L66.17 15.66L70.26 8.40L77.20 8.40L70.28 20.30L77.49 32.70L70.53 32.70L66.19 25.07L61.88 32.70L54.89 32.70L62.10 20.30L55.21 8.40L62.17 8.40ZM93.48 25.99L93.48 25.99Q93.48 24.80 92.30 24.11Q91.12 23.43 88.52 22.89L88.52 22.89Q79.85 21.07 79.85 15.52L79.85 15.52Q79.85 12.29 82.53 10.12Q85.22 7.95 89.55 7.95L89.55 7.95Q94.18 7.95 96.95 10.13Q99.73 12.31 99.73 15.79L99.73 15.79L93.24 15.79Q93.24 14.40 92.34 13.49Q91.44 12.58 89.53 12.58L89.53 12.58Q87.89 12.58 86.99 13.32Q86.09 14.06 86.09 15.21L86.09 15.21Q86.09 16.28 87.11 16.95Q88.14 17.61 90.56 18.09Q92.99 18.58 94.65 19.18L94.65 19.18Q99.79 21.07 99.79 25.72L99.79 25.72Q99.79 29.04 96.94 31.10Q94.09 33.15 89.57 33.15L89.57 33.15Q86.52 33.15 84.15 32.06Q81.78 30.97 80.43 29.08Q79.08 27.18 79.08 24.98L79.08 24.98L85.24 24.98Q85.33 26.71 86.52 27.63Q87.71 28.55 89.71 28.55L89.71 28.55Q91.57 28.55 92.53 27.84Q93.48 27.13 93.48 25.99ZM118.71 32.70L118.53 30.23Q116.12 33.15 111.88 33.15L111.88 33.15Q107.97 33.15 105.91 30.91Q103.86 28.66 103.81 24.33L103.81 24.33L103.81 8.40L110.31 8.40L110.31 24.10Q110.31 27.90 113.76 27.90L113.76 27.90Q117.07 27.90 118.30 25.61L118.30 25.61L118.30 8.40L124.82 8.40L124.82 32.70L118.71 32.70ZM142.87 25.99L142.87 25.99Q142.87 24.80 141.69 24.11Q140.52 23.43 137.91 22.89L137.91 22.89Q129.24 21.07 129.24 15.52L129.24 15.52Q129.24 12.29 131.92 10.12Q134.61 7.95 138.94 7.95L138.94 7.95Q143.57 7.95 146.34 10.13Q149.12 12.31 149.12 15.79L149.12 15.79L142.63 15.79Q142.63 14.40 141.73 13.49Q140.83 12.58 138.92 12.58L138.92 12.58Q137.28 12.58 136.38 13.32Q135.48 14.06 135.48 15.21L135.48 15.21Q135.48 16.28 136.51 16.95Q137.53 17.61 139.95 18.09Q142.38 18.58 144.04 19.18L144.04 19.18Q149.19 21.07 149.19 25.72L149.19 25.72Q149.19 29.04 146.33 31.10Q143.48 33.15 138.97 33.15L138.97 33.15Q135.91 33.15 133.54 32.06Q131.17 30.97 129.82 29.08Q128.48 27.18 128.48 24.98L128.48 24.98L134.63 24.98Q134.72 26.71 135.91 27.63Q137.10 28.55 139.10 28.55L139.10 28.55Q140.96 28.55 141.92 27.84Q142.87 27.13 142.87 25.99Z"></path></g></svg><!----></svg>